<svg width="14" height="14" viewBox="0 0 14 14" fill="none" xmlns="http://www.w3.org/2000/svg">
<path d="M7.00016 12.3333C9.9335 12.3333 12.3335 9.93325 12.3335 6.99992C12.3335 4.06659 9.9335 1.66659 7.00016 1.66659C4.06683 1.66659 1.66683 4.06659 1.66683 6.99992C1.66683 9.93325 4.06683 12.3333 7.00016 12.3333ZM7.00016 0.333252C10.6668 0.333252 13.6668 3.33325 13.6668 6.99992C13.6668 10.6666 10.6668 13.6666 7.00016 13.6666C3.3335 13.6666 0.333496 10.6666 0.333496 6.99992C0.333496 3.33325 3.3335 0.333252 7.00016 0.333252ZM9.20016 9.79992L8.3335 10.3333L6.3335 6.86659V3.66659H7.3335V6.59992L9.20016 9.79992Z" fill="#828282"/>
</svg>
