<svg width="53" height="56" viewBox="0 0 53 56" fill="none" xmlns="http://www.w3.org/2000/svg">
<path d="M35.4492 7.99989H29.9812C29.2518 7.17702 28.3148 6.54739 27.2383 6.23289C26.3315 5.96814 25.6336 5.25939 25.3728 4.33851C24.6632 1.83288 22.3894 0 19.6939 0C16.9985 0 14.7249 1.83288 14.0154 4.33826C13.7542 5.26026 13.0546 5.96814 12.1467 6.23376C11.0714 6.54851 10.1353 7.17752 9.40648 7.99989H3.9388C1.76335 7.99989 0 9.79077 0 11.9999V47.9999C0 50.209 1.76335 51.9999 3.9388 51.9999H26.0983C25.6009 51.3711 25.1551 50.7007 24.7543 49.9999H3.9388C2.8528 49.9999 1.9694 49.1026 1.9694 47.9999V11.9999C1.9694 10.8972 2.8528 9.9999 3.9388 9.9999H8.21512C8.00217 10.6114 7.88303 11.2678 7.87786 11.952V15.9999H31.5104V11.9999C31.5104 11.298 31.3883 10.626 31.1702 9.9999H35.4492C36.5351 9.9999 37.4185 10.8972 37.4185 11.9999V21.9999H39.3879V11.9999C39.3879 9.79077 37.6246 7.99989 35.4492 7.99989ZM29.5408 13.9998H9.84714V11.9678C9.86067 10.2095 11.0305 8.64202 12.6919 8.15577C14.2564 7.69802 15.4586 6.47751 15.9078 4.89126C16.3901 3.18876 17.9469 2 19.6939 2C21.441 2 22.9978 3.18876 23.4798 4.89126C23.9293 6.47851 25.1308 7.69864 26.6938 8.15502C28.37 8.64464 29.5408 10.2258 29.5408 11.9998V13.9998Z" fill="#BE263B"/>
<path d="M19.7241 7.50001C20.5399 7.50001 21.2012 6.82843 21.2012 6.00001C21.2012 5.17158 20.5399 4.5 19.7241 4.5C18.9084 4.5 18.2471 5.17158 18.2471 6.00001C18.2471 6.82843 18.9084 7.50001 19.7241 7.50001Z" fill="#BE263B"/>
<path d="M50.2146 31.3933L51.6072 32.8075L52.9998 31.3933L48.822 27.1506L47.4294 28.5649L48.822 29.9791L47.3961 31.4271C45.2105 29.5028 42.4268 28.271 39.3623 28.0505V26H41.3317V24H35.4235V26H37.3929V28.0505C30.2408 28.5651 24.5918 34.6058 24.5918 42C24.5918 49.7319 30.764 56.0001 38.3776 56.0001C45.9914 56.0001 52.1634 49.7319 52.1634 42C52.1634 38.4942 50.8857 35.2974 48.7887 32.8413L50.2146 31.3933ZM50.194 41.9999C50.194 48.6167 44.8931 53.9999 38.3776 53.9999C31.8621 53.9999 26.5612 48.6167 26.5612 41.9999C26.5612 35.3831 31.8621 29.9999 38.3776 29.9999C44.8931 29.9999 50.194 35.3831 50.194 41.9999Z" fill="#BE263B"/>
<path d="M44.6347 34.2396L37.1943 41.7955L38.5751 43.1977L46.0154 35.6417L44.6347 34.2396Z" fill="#BE263B"/>
<path d="M38.3911 34.0431C38.942 34.0431 39.3886 33.5896 39.3886 33.0301C39.3886 32.4706 38.942 32.0171 38.3911 32.0171C37.8402 32.0171 37.3936 32.4706 37.3936 33.0301C37.3936 33.5896 37.8402 34.0431 38.3911 34.0431Z" fill="#BE263B"/>
<path d="M32.103 36.6581C32.6539 36.6581 33.1005 36.2045 33.1005 35.6451C33.1005 35.0856 32.6539 34.6321 32.103 34.6321C31.5521 34.6321 31.1055 35.0856 31.1055 35.6451C31.1055 36.2045 31.5521 36.6581 32.103 36.6581Z" fill="#BE263B"/>
<path d="M29.5063 43.0231C30.0572 43.0231 30.5038 42.5695 30.5038 42.0101C30.5038 41.4506 30.0572 40.9971 29.5063 40.9971C28.9554 40.9971 28.5088 41.4506 28.5088 42.0101C28.5088 42.5695 28.9554 43.0231 29.5063 43.0231Z" fill="#BE263B"/>
<path d="M32.103 49.3832C32.6539 49.3832 33.1005 48.9296 33.1005 48.3702C33.1005 47.8107 32.6539 47.3572 32.103 47.3572C31.5521 47.3572 31.1055 47.8107 31.1055 48.3702C31.1055 48.9296 31.5521 49.3832 32.103 49.3832Z" fill="#BE263B"/>
<path d="M38.3686 52.0231C38.9195 52.0231 39.3661 51.5695 39.3661 51.0101C39.3661 50.4506 38.9195 49.9971 38.3686 49.9971C37.8177 49.9971 37.3711 50.4506 37.3711 51.0101C37.3711 51.5695 37.8177 52.0231 38.3686 52.0231Z" fill="#BE263B"/>
<path d="M32.9144 21H8.40625V23.0741H32.9144V21Z" fill="#BE263B"/>
<path d="M8.40625 27.2219V29.296H28.2826L30.325 27.2219H8.40625Z" fill="#BE263B"/>
<path d="M8.40625 33.4442V35.5183H22.1552L24.1977 33.4442H8.40625Z" fill="#BE263B"/>
<path d="M18.618 39.6667H8.40625V41.7408H18.618V39.6667Z" fill="#BE263B"/>
</svg>
