<svg width="51" height="56" viewBox="0 0 51 56" fill="none" xmlns="http://www.w3.org/2000/svg">
<path d="M32.6567 24.8889H8.16406V26.963H32.6567V24.8889Z" fill="#BE263B"/>
<path d="M8.16406 31.1111V33.1851H28.0278L30.0689 31.1111H8.16406Z" fill="#BE263B"/>
<path d="M8.16406 37.3333V39.4073H21.9043L23.9455 37.3333H8.16406Z" fill="#BE263B"/>
<path d="M18.3693 43.5558H8.16406V45.6299H18.3693V43.5558Z" fill="#BE263B"/>
<path d="M50.4026 22.1805L47.5161 19.2475C46.7194 18.438 45.4263 18.4378 44.6296 19.2474C37.2631 26.7331 29.8769 34.2388 22.4517 41.7841C22.4517 45.3732 22.4517 44.5957 22.4517 47.7033C27.3653 47.7033 26.1223 47.7056 28.1813 47.6945C29.2466 46.6119 33.9482 41.8344 38.7801 36.9244V51.8518C38.7801 52.9972 37.8664 53.9259 36.7391 53.9259H4.08223C2.95493 53.9259 2.04118 52.9972 2.04118 51.8518V14.5183C2.04118 13.3728 2.95493 12.4442 4.08223 12.4442H8.16472V16.5925H32.657V12.4444L36.7391 12.4442C37.8664 12.4442 38.7801 13.3728 38.7801 14.5183V22.2217L40.8212 20.1333V14.5183C40.8212 12.2272 38.9935 10.3702 36.7391 10.3702H32.3044C31.6489 8.48767 30.1305 7.01935 28.2294 6.46388C27.2896 6.18933 26.5663 5.45432 26.296 4.49934C25.5606 1.90077 23.2041 0 20.4105 0C17.6171 0 15.2607 1.90077 14.5254 4.49895C14.2547 5.4551 13.5296 6.1892 12.5888 6.46466C10.6885 7.02116 9.16879 8.48793 8.51412 10.3702H4.0821C1.82763 10.3702 0 12.2272 0 14.5183V51.8518C0 54.1428 1.82763 56 4.0821 56H36.7389C38.9934 56 40.821 54.1428 40.821 51.8518V34.8504C45.2092 30.3914 49.2961 26.2382 50.4025 25.1138C51.1991 24.3041 51.1991 22.9901 50.4026 22.1805ZM10.2055 12.4111C10.2195 10.5877 11.4319 8.96212 13.1538 8.45786C14.7752 7.98315 16.0212 6.71744 16.4868 5.07243C16.9865 3.30687 18.6 2.07408 20.4105 2.07408C22.2212 2.07408 23.8346 3.30687 24.3342 5.07243C24.8001 6.71848 26.0452 7.9838 27.6651 8.45708C29.4022 8.96497 30.6156 10.6045 30.6156 12.4444V14.5185H10.2055V12.4111ZM27.331 45.6253C26.8017 45.6283 26.585 45.6292 25.8526 45.6295L24.4926 44.2475V42.6433C24.9985 42.1292 25.3485 41.7736 25.8675 41.2461L28.754 44.1793L27.331 45.6253ZM30.1971 42.7128L27.3107 39.7796L40.2999 26.5803L43.1864 29.5136L30.1971 42.7128ZM44.6295 28.0468L41.7431 25.1137L43.1864 23.647L46.0729 26.5802L44.6295 28.0468ZM47.5161 25.1138L44.6295 22.1805L46.0728 20.714L48.9593 23.6471L47.5161 25.1138Z" fill="#BE263B"/>
<path d="M20.4409 7.77787C21.2864 7.77787 21.9717 7.08142 21.9717 6.22231C21.9717 5.3632 21.2864 4.66675 20.4409 4.66675C19.5955 4.66675 18.9102 5.3632 18.9102 6.22231C18.9102 7.08142 19.5955 7.77787 20.4409 7.77787Z" fill="#BE263B"/>
</svg>
