<svg width="56" height="56" viewBox="0 0 56 56" fill="none" xmlns="http://www.w3.org/2000/svg">
<path d="M28.0324 8.07698C28.9245 8.07698 29.6478 7.35374 29.6478 6.46158C29.6478 5.56943 28.9245 4.84619 28.0324 4.84619C27.1402 4.84619 26.417 5.56943 26.417 6.46158C26.417 7.35374 27.1402 8.07698 28.0324 8.07698Z" fill="#BE263B"/>
<path d="M49.5389 12.923C49.5389 10.5439 47.6104 8.61529 45.2313 8.61529H39.2512C38.4534 7.72911 37.4287 7.05105 36.2514 6.71236C35.2596 6.42724 34.4964 5.66397 34.2111 4.67225C33.4351 1.97401 30.9483 0 28.0003 0C25.0525 0 22.5659 1.97388 21.79 4.67198C21.5043 5.66491 20.7392 6.42724 19.7462 6.71344C18.5702 7.0524 17.5465 7.72979 16.7494 8.61529H10.7696C8.39042 8.61529 6.46191 10.5439 6.46191 12.923V51.6923C6.46191 54.0714 8.39042 56 10.7696 56C20.6593 56 32.8141 56 45.2313 56C47.6105 56 49.539 54.0714 49.539 51.6923C49.539 39.4585 49.5389 27.7438 49.5389 12.923ZM17.2313 12.8883C17.2461 10.9948 18.5255 9.30668 20.3427 8.78302C22.0537 8.29006 23.3685 6.97567 23.8598 5.26739C24.3871 3.43406 26.0897 2.15386 28.0003 2.15386C29.9111 2.15386 31.6137 3.43406 32.1409 5.26753C32.6325 6.97688 33.9465 8.29087 35.6558 8.78235C37.489 9.30964 38.7695 11.0124 38.7695 12.9229V15.0767H17.2313V12.8883ZM45.2313 53.8461C33.7277 53.8461 22.243 53.8461 10.7696 53.8461C9.58191 53.8461 8.61577 52.8799 8.61577 51.6923V12.923C8.61577 11.7354 9.58191 10.7691 10.7696 10.7691H15.4465C15.2136 11.4277 15.0833 12.1346 15.0776 12.8714V17.2307H40.9236V12.923C40.9236 12.1671 40.7901 11.4434 40.5515 10.7691H45.2313C46.4189 10.7691 47.3851 11.7354 47.3851 12.923C47.3851 19.0807 47.3849 47.9574 47.3853 51.6923C47.3852 52.8799 46.419 53.8461 45.2313 53.8461Z" fill="#BE263B"/>
<path d="M40.9228 23.6924H21.5381V25.8462H40.9228V23.6924Z" fill="#BE263B"/>
<path d="M40.9228 30.1541H21.5381V32.3079H40.9228V30.1541Z" fill="#BE263B"/>
<path d="M40.9228 36.6156H21.5381V38.7695H40.9228V36.6156Z" fill="#BE263B"/>
<path d="M40.9228 43.0771H21.5381V45.231H40.9228V43.0771Z" fill="#BE263B"/>
<path d="M16.1541 25.8462C16.7489 25.8462 17.231 25.3641 17.231 24.7693C17.231 24.1745 16.7489 23.6924 16.1541 23.6924C15.5593 23.6924 15.0771 24.1745 15.0771 24.7693C15.0771 25.3641 15.5593 25.8462 16.1541 25.8462Z" fill="#BE263B"/>
<path d="M16.1541 32.3079C16.7489 32.3079 17.231 31.8258 17.231 31.231C17.231 30.6362 16.7489 30.1541 16.1541 30.1541C15.5593 30.1541 15.0771 30.6362 15.0771 31.231C15.0771 31.8258 15.5593 32.3079 16.1541 32.3079Z" fill="#BE263B"/>
<path d="M16.1541 38.7695C16.7489 38.7695 17.231 38.2873 17.231 37.6925C17.231 37.0978 16.7489 36.6156 16.1541 36.6156C15.5593 36.6156 15.0771 37.0978 15.0771 37.6925C15.0771 38.2873 15.5593 38.7695 16.1541 38.7695Z" fill="#BE263B"/>
<path d="M16.1541 45.231C16.7489 45.231 17.231 44.7488 17.231 44.1541C17.231 43.5593 16.7489 43.0771 16.1541 43.0771C15.5593 43.0771 15.0771 43.5593 15.0771 44.1541C15.0771 44.7488 15.5593 45.231 16.1541 45.231Z" fill="#BE263B"/>
</svg>
